<svg xmlns="http://www.w3.org/2000/svg" width="1200" height="800" viewBox="0 0 1200 800">
<rect width="100%" height="100%" fill="white"/>
<text x="600" y="60" text-anchor="middle" font-family="Arial" font-size="32" font-weight="bold">Workflow 5 Tahap SIKLAS-NB</text>
<rect x="40" y="250" width="180" height="250" fill="white" stroke="black" stroke-width="2"/><text x="130.0" y="290" text-anchor="middle" font-family="Arial" font-size="20">1. TRAINING AI</text><text x="130.0" y="318" text-anchor="middle" font-family="Arial" font-size="20">Data Training 120 data</text><text x="130.0" y="346" text-anchor="middle" font-family="Arial" font-size="20">Model Naive Bayes</text><text x="130.0" y="374" text-anchor="middle" font-family="Arial" font-size="20">(Admin)</text><line x1="220" y1="375" x2="260" y2="375" stroke="black" stroke-width="3" marker-end="url(#a)"/><rect x="270" y="250" width="180" height="250" fill="white" stroke="black" stroke-width="2"/><text x="360.0" y="290" text-anchor="middle" font-family="Arial" font-size="20">2. INPUT & VALIDASI WARGA</text><text x="360.0" y="318" text-anchor="middle" font-family="Arial" font-size="20">Status:</text><text x="360.0" y="346" text-anchor="middle" font-family="Arial" font-size="20">Draft → Divalidasi</text><text x="360.0" y="374" text-anchor="middle" font-family="Arial" font-size="20">(Operator/Kepala Dusun)</text><line x1="450" y1="375" x2="490" y2="375" stroke="black" stroke-width="3" marker-end="url(#a)"/><rect x="500" y="250" width="180" height="250" fill="white" stroke="black" stroke-width="2"/><text x="590.0" y="290" text-anchor="middle" font-family="Arial" font-size="20">3. KLASIFIKASI OTOMATIS</text><text x="590.0" y="318" text-anchor="middle" font-family="Arial" font-size="20">Klasifikasi Batch</text><text x="590.0" y="346" text-anchor="middle" font-family="Arial" font-size="20">Layak / Tidak Layak</text><text x="590.0" y="374" text-anchor="middle" font-family="Arial" font-size="20">(Admin)</text><line x1="680" y1="375" x2="720" y2="375" stroke="black" stroke-width="3" marker-end="url(#a)"/><rect x="730" y="250" width="180" height="250" fill="white" stroke="black" stroke-width="2"/><text x="820.0" y="290" text-anchor="middle" font-family="Arial" font-size="20">4. VERIFIKASI & APPROVAL</text><text x="820.0" y="318" text-anchor="middle" font-family="Arial" font-size="20">Setujui</text><text x="820.0" y="346" text-anchor="middle" font-family="Arial" font-size="20">Tolak</text><text x="820.0" y="374" text-anchor="middle" font-family="Arial" font-size="20">Override + Catatan</text><text x="820.0" y="402" text-anchor="middle" font-family="Arial" font-size="20">(Kepala Desa)</text><line x1="910" y1="375" x2="950" y2="375" stroke="black" stroke-width="3" marker-end="url(#a)"/><rect x="960" y="250" width="180" height="250" fill="white" stroke="black" stroke-width="2"/><text x="1050.0" y="290" text-anchor="middle" font-family="Arial" font-size="20">5. REKAPITULASI & LAPORAN</text><text x="1050.0" y="318" text-anchor="middle" font-family="Arial" font-size="20">Cetak Laporan</text><text x="1050.0" y="346" text-anchor="middle" font-family="Arial" font-size="20">per Dusun</text>
</svg>